<svg version="1.1" id="Layer_1" xmlns="http://www.w3.org/2000/svg" xmlns:xlink="http://www.w3.org/1999/xlink" x="0px" y="0px"
	width="2500" height="514" viewBox="0 0 169 164" enable-background="new 0 0 169 164" xml:space="preserve">
<path fill="#FFFFFF" opacity="1.000000" stroke="none" 
	d="
M102.000000,165.000000 
	C69.166672,165.000000 36.833126,164.949158 4.500366,165.084625 
	C1.516303,165.097122 0.910429,164.482712 0.916975,161.499832 
	C1.031838,109.166756 1.031830,56.833290 0.916986,4.500213 
	C0.910441,1.517455 1.517263,0.910771 4.500143,0.917058 
	C58.499897,1.030875 112.500031,1.030866 166.499786,0.917077 
	C169.482422,0.910792 170.089600,1.517147 170.083054,4.500130 
	C169.968170,56.833206 169.968170,109.166664 170.083008,161.499741 
	C170.089554,164.482376 169.485825,165.109116 166.499420,165.086441 
	C145.167297,164.924515 123.833359,165.000000 102.000000,165.000000 
z"/>
<path fill="#9BCF6C" opacity="1.000000" stroke="none" 
	d="
M78.211380,50.273239 
	C65.692947,41.735432 52.005249,36.255718 38.312408,30.781048 
	C36.681908,30.129141 34.785336,29.930796 32.739170,27.440840 
	C52.169773,32.111794 69.486145,39.531807 87.500290,45.992886 
	C90.726456,46.222412 93.053375,47.594490 95.375732,49.632126 
	C104.565025,54.889103 113.845711,59.467381 121.357506,66.740334 
	C123.145660,68.471634 124.919762,70.264664 126.411568,72.246651 
	C132.886887,80.849724 132.454041,88.996925 125.420303,97.149261 
	C117.393974,106.452057 106.783745,112.030769 95.890945,117.858414 
	C93.873596,120.435562 91.238609,121.201950 88.268936,122.007393 
	C70.891174,128.567810 53.832787,135.039490 36.271168,140.066010 
	C34.746597,140.502380 33.281940,141.627808 30.907894,140.328934 
	C47.181881,133.871811 63.178856,127.882988 77.803909,118.389603 
	C79.799866,115.263702 83.229729,114.344162 85.665985,111.680496 
	C93.837784,107.070541 99.947594,100.855202 104.122192,92.898781 
	C109.107719,83.396812 105.577591,75.227074 99.395569,67.780830 
	C95.776367,63.421513 91.393951,59.858231 86.189972,56.790298 
	C83.724243,54.168056 80.649582,52.872021 78.211380,50.273239 
z"/>
<path fill="#8F8F8F" opacity="1.000000" stroke="none" 
	d="
M86.032516,112.160995 
	C84.148918,115.138031 81.327354,116.454002 78.307312,118.030815 
	C67.844475,112.711159 57.729351,107.333534 49.593624,98.995239 
	C40.682789,89.862541 40.024639,81.087578 48.009155,71.147865 
	C55.801807,61.447002 66.683594,55.929089 77.745483,50.136620 
	C81.099541,50.882500 83.428917,52.929527 85.924416,55.174873 
	C85.357346,58.769356 82.208549,59.843399 80.139740,61.834213 
	C76.903687,64.948265 73.645668,68.069244 71.187202,71.791122 
	C64.217079,82.343132 66.830917,94.964294 77.644554,104.125862 
	C80.540688,106.579536 83.749184,108.688148 86.032516,112.160995 
z"/>
<path fill="#949493" opacity="1.000000" stroke="none" 
	d="
M95.769981,49.655098 
	C93.123955,48.809776 90.713730,47.683105 88.088898,46.285404 
	C102.710091,38.743477 118.526886,34.144997 134.160385,29.050699 
	C134.900284,28.809599 135.758911,28.694330 136.907166,29.830368 
	C122.784592,35.686119 108.901932,41.532959 95.769981,49.655098 
z"/>
<path fill="#949594" opacity="1.000000" stroke="none" 
	d="
M88.169365,122.287819 
	C89.889359,120.066956 92.581635,119.415771 95.241562,118.074028 
	C104.049660,124.832153 114.245979,128.432648 123.971176,132.933105 
	C125.559685,133.668213 127.521622,133.778946 129.216446,136.502090 
	C114.788216,132.321121 101.148239,128.821259 88.169365,122.287819 
z"/>
<path fill="#949594" opacity="1.000000" stroke="none" 
	d="
M132.137283,137.496857 
	C132.198318,137.533630 131.858093,137.461685 131.858093,137.461685 
	C131.858093,137.461685 132.076248,137.460068 132.137283,137.496857 
z"/>
<path fill="#949594" opacity="1.000000" stroke="none" 
	d="
M130.488480,135.548737 
	C130.477905,135.571442 130.499054,135.526031 130.488480,135.548737 
z"/>
<path fill="#FEFEFE" opacity="1.000000" stroke="none" 
	d="
M86.387077,112.483490 
	C80.817078,108.632332 75.779739,104.576767 71.691673,99.447609 
	C63.740788,89.471886 63.907921,77.690155 72.266899,68.024727 
	C76.193733,63.484150 80.555023,59.403820 85.752060,55.706795 
	C94.907631,60.243584 101.919655,66.866554 106.099182,76.158020 
	C109.252525,83.168175 107.903923,89.898117 103.850624,96.035545 
	C99.418495,102.746590 93.940392,108.518372 86.387077,112.483490 
z"/>
</svg>